<svg width="16" height="17" viewBox="0 0 16 17" fill="none" xmlns="http://www.w3.org/2000/svg">
<g clip-path="url(#clip0_59258_8290)">
<path d="M1.302 2.11697L1.97889 1.53033C2.75892 0.750305 4.02244 0.750305 4.80247 1.53033C4.82181 1.54967 6.01442 3.10329 6.01442 3.10329C6.74932 3.87687 6.74932 5.09526 6.01442 5.8624L5.26662 6.80359C6.20781 8.93739 7.67117 10.4072 9.73406 11.2839L10.6753 10.5297C11.4424 9.78834 12.6672 9.78834 13.4344 10.5297C13.4344 10.5297 14.988 11.7223 15.0073 11.7416C15.7874 12.5217 15.7874 13.7852 15.0396 14.533L14.3949 15.2743C13.6535 16.0157 12.6543 16.4218 11.5713 16.4218C6.64618 16.4218 0.12229 9.89148 0.12229 4.97278C0.12229 3.89621 0.528421 2.89055 1.302 2.12342V2.11697ZM11.5713 15.1261C12.3062 15.1261 12.9831 14.8553 13.4473 14.3847L14.0919 13.6434C14.3562 13.3791 14.3691 12.9471 14.1177 12.6699C14.1177 12.6699 12.577 11.4838 12.5576 11.4644C12.2933 11.2001 11.8292 11.2001 11.5584 11.4644C11.5391 11.4838 10.2433 12.5217 10.2433 12.5217C10.0628 12.6635 9.82431 12.7022 9.61158 12.6184C6.94272 11.5998 5.0281 9.69164 3.92574 6.93897C3.84194 6.72624 3.87417 6.48127 4.02244 6.29432C4.02244 6.29432 5.06033 4.99212 5.07322 4.97923C5.35042 4.70203 5.35042 4.25722 5.07322 3.98002C5.05388 3.96068 3.86772 2.41996 3.86772 2.41996C3.59052 2.16854 3.1586 2.17499 2.86206 2.47153L2.18518 3.05816C1.6888 3.55454 1.4116 4.23143 1.4116 4.96633C1.4116 9.45312 7.70985 15.1261 11.5713 15.1261Z" fill="#732FCB"/>
</g>
<defs>
<clipPath id="clip0_59258_8290">
<rect width="15.4717" height="15.4717" fill="white" transform="matrix(-1 0 0 1 15.5935 0.942383)"/>
</clipPath>
</defs>
</svg>
