<svg width="18" height="23" viewBox="0 0 18 23" fill="none" xmlns="http://www.w3.org/2000/svg">
<g clip-path="url(#clip0_59230_599)">
<path d="M9.82159 22.0034C12.0692 19.1906 17.1953 12.3732 17.1953 8.54396C17.1953 3.89977 13.4274 0.131836 8.78322 0.131836C4.13902 0.131836 0.371094 3.89977 0.371094 8.54396C0.371094 12.3732 5.49723 19.1906 7.74485 22.0034C8.28375 22.6737 9.28269 22.6737 9.82159 22.0034V22.0034ZM8.78322 11.348C7.23661 11.348 5.97918 10.0906 5.97918 8.54396C5.97918 6.99735 7.23661 5.73992 8.78322 5.73992C10.3298 5.73992 11.5873 6.99735 11.5873 8.54396C11.5873 10.0906 10.3298 11.348 8.78322 11.348Z" fill="#0B8F00"/>
</g>
<defs>
<clipPath id="clip0_59230_599">
<rect width="16.8242" height="22.4323" fill="white" transform="translate(0.370605 0.131836)"/>
</clipPath>
</defs>
</svg>
