<svg width="21" height="24" viewBox="0 0 21 24" fill="none" xmlns="http://www.w3.org/2000/svg">
<path fill-rule="evenodd" clip-rule="evenodd" d="M1.99109 10.3168C1.99109 5.71448 5.83699 1.99463 10.489 1.99463C15.1541 1.99463 19 5.71448 19 10.3168C19 12.6359 18.1566 14.789 16.7684 16.6139C15.2369 18.6269 13.3492 20.3808 11.2245 21.7575C10.7382 22.0756 10.2993 22.0996 9.76563 21.7575C7.62879 20.3808 5.74115 18.6269 4.22276 16.6139C2.83352 14.789 1.99109 12.6359 1.99109 10.3168ZM7.68819 10.576C7.68819 12.1178 8.94628 13.3304 10.4889 13.3304C12.0325 13.3304 13.3027 12.1178 13.3027 10.576C13.3027 9.04624 12.0325 7.7746 10.4889 7.7746C8.94628 7.7746 7.68819 9.04624 7.68819 10.576Z" stroke="#732FCB" stroke-width="2.5"/>
</svg>
