<svg width="238" height="279" viewBox="0 0 238 279" fill="none" xmlns="http://www.w3.org/2000/svg">
<path fill-rule="evenodd" clip-rule="evenodd" d="M0.736816 116.341C0.736816 52.3751 54.1901 0.673828 118.847 0.673828C183.687 0.673828 237.14 52.3751 237.14 116.341C237.14 148.575 225.417 178.5 206.123 203.864C184.837 231.842 158.601 256.218 129.07 275.353C122.311 279.775 116.211 280.108 108.793 275.353C79.0939 256.218 52.858 231.842 31.7543 203.864C12.4455 178.5 0.736816 148.575 0.736816 116.341ZM79.9195 119.944C79.9195 141.373 97.4054 158.227 118.846 158.227C140.3 158.227 157.954 141.373 157.954 119.944C157.954 98.6824 140.3 81.0083 118.846 81.0083C97.4054 81.0083 79.9195 98.6824 79.9195 119.944Z" fill="white"/>
</svg>
