<svg width="26" height="26" viewBox="0 0 26 26" fill="none" xmlns="http://www.w3.org/2000/svg">
<path d="M7.27648 4.69753H10.9359C11.1366 4.69759 11.3299 4.77385 11.4765 4.91089C11.6232 5.04794 11.7124 5.23556 11.7261 5.43583C11.7398 5.63611 11.6769 5.83411 11.5503 5.98983C11.4236 6.14556 11.2425 6.24739 11.0436 6.27475L10.9359 6.28214H7.27648C6.67436 6.28205 6.09465 6.51048 5.65444 6.92128C5.21422 7.33208 4.94632 7.89464 4.90484 8.49532L4.89956 8.65907V18.695C4.89975 19.2971 5.12844 19.8767 5.53944 20.3167C5.95043 20.7567 6.5131 21.0243 7.11379 21.0655L7.27648 21.0719H17.3124C17.9148 21.0722 18.495 20.8438 18.9354 20.4327C19.3759 20.0217 19.6438 19.4587 19.6851 18.8577L19.6904 18.695V18.1689C19.6904 17.9681 19.7667 17.7749 19.9037 17.6282C20.0408 17.4815 20.2284 17.3923 20.4287 17.3787C20.6289 17.365 20.8269 17.4278 20.9827 17.5545C21.1384 17.6812 21.2402 17.8622 21.2676 18.0611L21.275 18.1689V18.695C21.2748 19.7091 20.8857 20.6846 20.1878 21.4204C19.4899 22.1562 18.5364 22.5963 17.5237 22.6502L17.3124 22.6565H7.27648C6.26216 22.6566 5.28644 22.2676 4.5504 21.5697C3.81435 20.8717 3.37405 19.9181 3.32022 18.9052L3.31494 18.6939V8.65801C3.31512 7.64404 3.70409 6.66874 4.40176 5.93295C5.09943 5.19716 6.05267 4.75689 7.0652 4.70281L7.27648 4.69753ZM15.4679 7.38504V4.43343C15.4678 4.28769 15.5079 4.14475 15.5838 4.02034C15.6597 3.89592 15.7684 3.79485 15.898 3.72823C16.0277 3.66162 16.1732 3.63205 16.3185 3.64277C16.4638 3.6535 16.6034 3.7041 16.7218 3.78902L16.8085 3.86085L23.1416 9.93521C23.4374 10.2194 23.4639 10.6747 23.2219 10.9895L23.1416 11.0793L16.8085 17.1558C16.7033 17.2568 16.5723 17.3268 16.4299 17.3581C16.2876 17.3895 16.1393 17.3809 16.0015 17.3334C15.8636 17.2859 15.7416 17.2013 15.6487 17.0888C15.5559 16.9764 15.4959 16.8406 15.4753 16.6962L15.4679 16.5832V13.6242L15.1298 13.6168C12.3219 13.6083 9.92173 14.7619 7.87652 17.1051C7.3536 17.7041 6.37114 17.2435 6.49791 16.4575C7.37156 11.0275 10.2999 7.95972 15.1499 7.41673L15.4679 7.38504Z" fill="#732FCB"/>
</svg>
