<svg width="12" height="13" viewBox="0 0 12 13" fill="none" xmlns="http://www.w3.org/2000/svg">
<g clip-path="url(#clip0_59638_3694)">
<path fill-rule="evenodd" clip-rule="evenodd" d="M11.7524 5.61769L10.9424 4.61269C10.8149 4.44769 10.7324 4.25269 10.7099 4.03519L10.5674 2.76019C10.5385 2.5056 10.4241 2.26833 10.243 2.08716C10.0618 1.90598 9.82452 1.79159 9.56993 1.76269L8.29493 1.62019C8.06993 1.59769 7.87493 1.50019 7.70993 1.37269L6.70493 0.562686C6.29243 0.232686 5.70743 0.232686 5.29493 0.562686L4.28993 1.37269C4.12493 1.50019 3.92993 1.58269 3.71243 1.60519L2.43743 1.74769C1.91243 1.80769 1.49993 2.22019 1.43993 2.74519L1.29743 4.02019C1.27493 4.24519 1.17743 4.44019 1.04993 4.60519L0.239932 5.61019C-0.0900684 6.02269 -0.0900684 6.60769 0.239932 7.02019L1.04993 8.02519C1.17743 8.19019 1.25993 8.38519 1.28243 8.60269L1.42493 9.87769C1.48493 10.4027 1.89743 10.8152 2.42243 10.8752L3.69743 11.0177C3.92243 11.0402 4.11743 11.1377 4.28243 11.2652L5.28743 12.0752C5.69993 12.4052 6.28493 12.4052 6.69743 12.0752L7.70243 11.2652C7.86743 11.1377 8.06243 11.0552 8.27993 11.0327L9.55493 10.8902C10.0799 10.8302 10.4924 10.4177 10.5524 9.89269L10.6949 8.61769C10.7174 8.39269 10.8149 8.19769 10.9424 8.03269L11.7524 7.02769C12.0824 6.61519 12.0824 6.03019 11.7524 5.61769ZM4.87493 9.32269L2.24993 6.69769L3.37493 5.57269L4.87493 7.07269L8.62493 3.32269L9.74993 4.48519L4.87493 9.32269Z" fill="white"/>
</g>
<defs>
<clipPath id="clip0_59638_3694">
<rect width="12" height="12" fill="white" transform="translate(0 0.322754)"/>
</clipPath>
</defs>
</svg>
