<svg width="17" height="12" viewBox="0 0 17 12" fill="none" xmlns="http://www.w3.org/2000/svg">
<path d="M8.67871 3.50392C8.56886 3.81582 8.50684 4.15055 8.50684 4.50002C8.50684 6.15687 9.84998 7.50002 11.5068 7.50002C11.8561 7.50002 12.1902 7.43689 12.502 7.32717C12.5044 7.38449 12.5068 7.44209 12.5068 7.50002C12.5068 9.70915 10.716 11.5 8.50684 11.5C6.2977 11.5 4.50684 9.70916 4.50684 7.50002C4.50685 5.29089 6.2977 3.50002 8.50684 3.50002C8.56442 3.50002 8.62172 3.50151 8.67871 3.50392Z" fill="white"/>
<path d="M8.48926 0.500017C10.3342 0.496467 12.1363 1.05992 13.6504 2.11427C14.9782 3.039 16.0286 4.30275 16.6963 5.76759C16.8514 6.10848 16.6689 6.49961 16.3174 6.62892C15.9656 6.75824 15.578 6.57623 15.418 6.23732C14.8493 5.03279 13.9735 3.99422 12.874 3.22853C11.5883 2.33324 10.0589 1.85444 8.49219 1.85744C6.92544 1.86045 5.3975 2.34485 4.11524 3.24513C3.01872 4.01501 2.14701 5.05704 1.58301 6.26369C1.42435 6.60316 1.03776 6.78704 0.685548 6.6592C0.333389 6.53127 0.148837 6.1404 0.302736 5.79884C0.964811 4.33138 2.01062 3.06365 3.33496 2.13381C4.84486 1.0737 6.64438 0.503618 8.48926 0.500017Z" fill="white"/>
</svg>
