<svg width="26" height="26" viewBox="0 0 26 26" fill="none" xmlns="http://www.w3.org/2000/svg">
<path fill-rule="evenodd" clip-rule="evenodd" d="M20.8563 5.33703C19.8308 4.31103 18.6125 3.498 17.2715 2.94474C15.9305 2.39148 14.4933 2.10892 13.0427 2.11333C6.95477 2.11333 1.99889 7.04446 1.99641 13.1066C1.99372 15.0369 2.50254 16.9335 3.47109 18.6032L1.90381 24.2979L7.75946 22.7693C9.38033 23.6474 11.1948 24.1069 13.0382 24.1063H13.0427C19.1301 24.1063 24.0855 19.1747 24.0884 13.113C24.0921 11.6674 23.8083 10.2354 23.2534 8.90041C22.6985 7.56544 21.8837 6.35416 20.8563 5.33703V5.33703ZM13.0427 22.2508H13.0387C11.3953 22.2513 9.78187 21.8115 8.36607 20.9772L8.03082 20.7791L4.55606 21.6863L5.48355 18.3145L5.26517 17.9679C4.34629 16.5131 3.85945 14.8273 3.8613 13.1066C3.8613 8.06901 7.9818 3.9703 13.0461 3.9703C15.4755 3.96597 17.8072 4.92678 19.5282 6.64143C21.2493 8.35608 22.2188 10.6841 22.2235 13.1135C22.2216 18.1516 18.103 22.2508 13.0427 22.2508V22.2508ZM18.0783 15.4078C17.8025 15.2701 16.4441 14.6055 16.1926 14.5139C15.941 14.4223 15.7553 14.3763 15.5716 14.6516C15.3879 14.9269 14.8585 15.5429 14.6976 15.7286C14.5367 15.9143 14.3757 15.9346 14.0999 15.797C13.8241 15.6593 12.9342 15.3696 11.88 14.4337C11.0594 13.7053 10.5058 12.806 10.3449 12.5312C10.1839 12.2564 10.3275 12.1073 10.4657 11.9706C10.59 11.8473 10.7415 11.6497 10.8797 11.4893C11.0178 11.3289 11.0639 11.214 11.1555 11.0308C11.2471 10.8475 11.2015 10.6871 11.1327 10.5499C11.0639 10.4128 10.5117 9.06038 10.282 8.51023C10.0576 7.97443 9.83035 8.04722 9.661 8.0388C9.50006 8.03088 9.31436 8.0289 9.13164 8.0289C8.99195 8.03254 8.85451 8.06493 8.7279 8.12406C8.60129 8.18319 8.48823 8.26778 8.39578 8.37256C8.14274 8.64789 7.42966 9.31343 7.42966 10.6643C7.42966 12.0152 8.42005 13.3225 8.55672 13.5057C8.69339 13.6889 10.5028 16.4635 13.2714 17.6535C13.7855 17.8736 14.3108 18.0667 14.8452 18.2318C15.5062 18.4408 16.1079 18.4116 16.5833 18.3408C17.1136 18.2621 18.2174 17.6762 18.4467 17.0345C18.676 16.3927 18.6765 15.843 18.6076 15.7286C18.5388 15.6143 18.3546 15.5449 18.0783 15.4078V15.4078Z" fill="white"/>
</svg>
